<svg width="176" height="37" viewBox="0 0 176 37" fill="none" xmlns="http://www.w3.org/2000/svg">
<g clip-path="url(#clip0_131_589)">
<path fill-rule="evenodd" clip-rule="evenodd" d="M19.4961 7.5578C19.9416 7.15852 21.1807 6.07 21.7979 5.73252C22.4058 5.39978 23.2829 5.37602 23.6124 5.37602C23.3478 4.7153 23.023 1.6399 22.5775 0.632189C22.3594 0.142596 20.8837 -0.175878 19.4079 0.104569C17.793 0.408782 16.1827 1.34519 16.1966 1.5068C16.2291 1.82052 18.1225 5.4901 18.6793 6.39798C18.9392 6.82578 19.2455 7.21556 19.5007 7.5578M21.3477 33.0166C21.8582 29.0286 23.204 22.3074 23.2782 18.6331C32.2068 18.1625 40.3512 15.8143 40.6157 11.9404C38.2397 11.9404 19.5796 13.6706 22.0577 10.0438C22.1088 9.96773 22.6425 10.0343 23.1065 10.1198C23.5706 10.2054 23.9372 10.0818 23.7609 9.54469C24.0022 9.4829 23.9047 9.1264 23.9047 9.1264C23.9047 9.1264 24.0857 8.96478 24.0115 8.72236C24.0439 8.50371 24.262 8.33259 24.262 8.33259C24.262 8.33259 24.5498 8.1377 24.3549 7.83349C24.16 7.52927 23.8815 7.31538 23.9047 7.13475C23.9186 7.00641 23.9001 6.49305 23.798 6.00346C23.501 5.97018 22.6471 5.89888 22.1552 6.15081C21.6586 6.40749 20.2525 7.57206 19.7792 7.97134C19.9138 8.18048 20.0019 8.36586 20.0019 8.51322C20.0019 14.1554 3.08677 11.9451 -0.00390625 11.9451C0.914942 16.1328 8.61378 18.2766 17.069 18.6616C17.2779 22.9348 18.568 28.7006 19.2641 33.0214C17.7605 33.164 15.1432 33.0404 14.6466 30.5924C14.6466 30.5924 14.7255 29.946 15.3566 29.542C15.3566 29.542 14.0944 28.2491 11.6488 28.4107C11.6488 28.4107 13.9273 35.4076 20.2804 36.8859H20.3314C26.6891 35.4028 28.963 28.4107 28.963 28.4107C26.5174 28.2491 25.2551 29.542 25.2551 29.542C25.8863 29.946 25.9652 30.5924 25.9652 30.5924C25.464 33.0452 22.8466 33.164 21.3477 33.0214V33.0166ZM23.1947 7.30587C22.8699 7.25834 22.6378 7.04444 22.6378 7.04444C22.6378 7.04444 23.0694 6.9256 23.2504 6.90659C23.4314 6.88758 23.5799 7.2013 23.5799 7.2013C23.5799 7.2013 23.5195 7.3534 23.1947 7.30587Z" fill="#2F4775"/>
<path d="M130.281 26.7993H127.603L125.478 19.9593H124.034V26.7993H121.473V10.1151H125.594C128.568 10.1151 129.756 11.5886 129.756 15.0348C129.756 17.0978 129.343 18.5713 127.858 19.3936L130.285 26.7993H130.281ZM127.195 15.0348C127.195 13.6516 126.99 12.4775 125.617 12.4775H124.039V17.5874H125.617C126.99 17.5874 127.195 16.4133 127.195 15.0348Z" fill="#2F4775"/>
<path d="M105.89 26.7993H103.329V16.3943L101.111 23.2391H99.6905L97.5187 16.5131V26.7993H94.957V10.1151H97.2681L100.424 18.8803L103.556 10.1151H105.89V26.7993Z" fill="#2F4775"/>
<path d="M92.3812 26.7993H89.7035L89.0399 23.4958L87.1651 14.146L85.2671 23.4958L84.6266 26.7993H81.9258L85.3599 12.487C85.4852 11.9642 85.6105 11.4413 85.7358 10.9184C86.0049 9.79666 88.2603 9.41164 88.613 10.9184C88.7383 11.4413 88.8589 11.9642 88.9842 12.487L92.3812 26.7993Z" fill="#2F4775"/>
<path d="M79.8989 26.7993H73.0586V10.1151H79.8989V12.4823H75.6202V17.2166H79.3049V19.5838H75.6202V24.4369H77.7967C78.8223 24.4369 78.5856 24.4987 79.1286 25.4541C79.3838 25.9009 79.639 26.3525 79.8989 26.8041" fill="#2F4775"/>
<path d="M70.0747 26.7993H63.2344V10.1151H65.796V24.4322H68.6222C70.6223 24.4322 70.0747 24.5177 70.0747 26.7993Z" fill="#2F4775"/>
<path d="M59.9469 15.1774C59.9469 18.5523 58.8471 20.2872 55.761 20.2872H54.2296V26.8041H51.668V10.1151H55.7657C58.7171 10.1151 59.9515 11.6837 59.9515 15.1774M57.3853 15.2012C57.3853 13.7229 57.1811 12.4823 55.8074 12.4823H54.2296V17.9201H55.8074C57.1811 17.9201 57.3853 16.6795 57.3853 15.2012Z" fill="#2F4775"/>
<path d="M151.285 22.1696C151.285 23.8808 151.058 25.0263 150.232 25.8486C149.568 26.5046 148.491 26.9514 147.053 26.9514C145.614 26.9514 144.584 26.5521 143.897 25.8486C143.118 25.0501 142.844 24.0234 142.844 22.2646H145.405C145.405 23.1535 145.498 23.7192 145.865 24.1374C146.092 24.3941 146.482 24.5843 147.053 24.5843C147.624 24.5843 148.037 24.4179 148.287 24.1137C148.631 23.7144 148.723 23.1535 148.723 22.2646C148.723 20.4821 148.45 20.0401 147.192 19.522L145.248 18.6996C143.6 17.9961 142.983 17.0835 142.983 14.5024C142.983 13.0004 143.419 11.7835 144.31 10.966C145.02 10.3338 145.934 9.95825 147.099 9.95825C148.403 9.95825 149.364 10.31 150.027 10.966C150.872 11.8121 151.169 13.0051 151.169 14.5975H148.607C148.607 13.8465 148.561 13.2618 148.218 12.815C147.99 12.5108 147.624 12.3207 147.076 12.3207C146.528 12.3207 146.227 12.5108 145.976 12.7912C145.679 13.143 145.54 13.7039 145.54 14.4311C145.54 15.7906 145.744 16.2136 146.89 16.6795L148.812 17.478C150.756 18.3004 151.285 19.3508 151.285 22.1648M157.318 26.7898H154.506V23.9093H157.318V26.7898ZM170.21 26.7898H167.532L166.868 23.4862H163.091L162.45 26.7898H159.75L163.755 10.1056H166.247L170.205 26.7898H170.21ZM166.386 21.1191L164.989 14.1364L163.592 21.1191H166.386ZM175.894 26.7898H173.082V23.9093H175.894V26.7898Z" fill="#2F4775"/>
<path d="M118.901 26.8943H116.223L115.559 23.5907L113.685 14.2409L111.787 23.5907L111.146 26.8943H108.445L111.879 12.5868C112.005 12.0639 112.13 11.541 112.255 11.0182C112.524 9.89639 114.78 9.51137 115.132 11.0182C115.258 11.541 115.378 12.0639 115.504 12.5868L118.901 26.8991V26.8943Z" fill="#2F4775"/>
<path d="M46.1153 0.280396H45.3867V36.6006H46.1153V0.280396Z" fill="#2F4775"/>
</g>
<defs>
<clipPath id="clip0_131_589">
<rect width="175.895" height="36.8811" fill="white"/>
</clipPath>
</defs>
</svg>
